<svg xmlns="http://www.w3.org/2000/svg" xmlns:xlink="http://www.w3.org/1999/xlink" viewBox="0 0 790.63 258.84"><defs><style>.cls-1{fill:#101010;}.cls-2{fill:url(#bonify_gradient_2);}</style><linearGradient id="bonify_gradient_2" x1="423.86" y1="94.79" x2="196.12" y2="94.79" gradientUnits="userSpaceOnUse"><stop offset="0" stop-color="#165cc3"/><stop offset="1" stop-color="#3ddabb"/></linearGradient></defs><title>logo_base</title><g id="Text"><path class="cls-1" d="M302.41,128.56c.09,1.38.13,2.78.13,4.17a59.89,59.89,0,1,1-59.87-59.87,55.52,55.52,0,0,1,7.77.52L270.91,45.8a91.43,91.43,0,1,0,55.52,50.34Z"/><path class="cls-1" d="M539.46,68.85V195.79h-34V68.85Zm-39-43.38c0-13.42,10.52-23.31,23.82-23.31C537.4,2.16,548,12.05,548,25.47c0,13-10.57,22.75-23.65,22.75-13.3,0-23.82-9.75-23.82-22.75"/><path class="cls-1" d="M612.6,68.73V59c0-14.93,7.38-24.23,24-23.64,10.6.37,16.91,2.55,24.26,7.2L674.4,15.08c-3.94-2.55-17.48-11.23-40.25-11.23-31.34,0-55.53,23-55.53,55.05v9.83H554.05V97.27h24.57v98.52h34V97.27h57.58V68.73Z"/><path class="cls-1" d="M479.61,125.84v69.95H445.73v-67.4c0-21.22-10.91-32.84-29.21-32.84-10.18,0-21.25,6-30.28,17.07v83.17H352.16V68.73h34.08v9.74C396.86,69.8,409.19,64.72,424,64.72c33.36,0,55.64,24.17,55.64,61.12"/><polygon class="cls-2" points="316.32 15.4 242.53 114.89 223.9 94.67 196.08 120.3 245.62 174.19 363.46 15.4 316.32 15.4"/><path class="cls-1" d="M106.31,131.76C106.31,112,91.63,94.6,71,94.6c-12.07,0-23.56,4.25-32.12,16V153c8.56,12,20,16.33,32.12,16.33,20.66,0,35.34-17.54,35.34-37.61m33.73,0c0,37.33-28.42,66.63-63.65,66.63-14.88,0-27.46-4-37.54-11v8.15H4.77V15.4H38.85v61c10.08-7,22.66-11,37.54-11,35.23,0,63.65,29.46,63.65,66.35"/><polygon class="cls-1" points="751.43 68.73 713.95 155.62 672.47 68.73 635.64 68.73 696.43 196.35 672.43 252.16 708.72 252.16 787.71 68.73 751.43 68.73"/></g></svg>